<?xml version="1.0" encoding="UTF-8"?>
<svg id="Layer_1" data-name="Layer 1" xmlns="http://www.w3.org/2000/svg" viewBox="0 0 100.86 96.67">
  <defs>
    <style>
      .cls-1 {
        fill: #5c696c;
      }

      .cls-1, .cls-2, .cls-3, .cls-4, .cls-5 {
        stroke-width: 0px;
      }

      .cls-2 {
        fill: #2967b1;
      }

      .cls-3 {
        fill: #f69765;
      }

      .cls-4 {
        fill: #fff;
      }

      .cls-5 {
        fill: #f69865;
      }
    </style>
  </defs>
  <rect class="cls-4" x="0" y="0" width="100.86" height="96.67" rx="13.64" ry="13.64"/>
  <g>
    <path class="cls-1" d="m15.75,82.1c0,1.82-1.29,3.62-3.86,3.62-1.21,0-2.28-.5-2.96-1.3v1.08h-1.67v-4.08h1.67c.07,1.43,1.14,2.7,2.66,2.7,1.36,0,2.11-.75,2.11-1.89,0-.94-.66-1.51-1.76-1.98l-2-.86c-1.73-.75-2.63-1.84-2.63-3.47,0-1.93,1.49-3.49,3.65-3.49.88,0,1.89.28,2.63,1.12v-.9h1.67v3.69h-1.63c-.15-1.47-1.16-2.35-2.39-2.35-1.07,0-1.93.74-1.93,1.78,0,.74.35,1.38,1.6,1.93l2.13.92c1.65.72,2.7,1.82,2.7,3.49h0Zm10.66-5.99v-3.47s-9.77,0-9.77,0v3.47s1.67,0,1.67,0v-1.84h2.26v9.7h-1.51s0,1.52,0,1.52h4.92s0-1.52,0-1.52h-1.51v-9.7h2.26v1.84s1.67,0,1.67,0h0Zm10.43,7.86h.88v1.52h-4.26v-1.52h1.32s-.77-2.42-.77-2.42h-4.41s-.75,2.42-.75,2.42h1.38v1.52h-4.2v-1.52h.94s3.2-9.81,3.2-9.81h-1.65v-1.52h4.63s3.71,11.33,3.71,11.33h0Zm-3.34-4.06l-1.67-5.36h-.07s-1.65,5.36-1.65,5.36h3.4Zm15.26,4.06h1.3v1.52h-2.61s-3.32-5.22-3.32-5.22h-2.15s0,3.69,0,3.69h1.61v1.52h-4.78v-1.52h1.25s0-9.81,0-9.81h-1.25v-1.52h5.6c2.68,0,4.32,1.54,4.32,3.78,0,1.23-.55,2.83-2.65,3.49l2.66,4.06h0Zm-4.39-5.33c1.49,0,2.42-.9,2.42-2.2s-.94-2.17-2.42-2.17h-2.39s0,4.37,0,4.37h2.39Zm5.82-2.53h1.67s0-1.84,0-1.84h2.26v9.7h-1.51s0,1.52,0,1.52h4.92s0-1.52,0-1.52h-1.51v-9.7h2.26v1.84s1.67,0,1.67,0v-3.47s-9.77,0-9.77,0v3.47s0,0,0,0Zm18.32-1.95h1.49v7.31c0,1.3-.83,2.55-2.88,2.55s-2.88-1.25-2.88-2.55v-7.31h1.45s0-1.52,0-1.52h-4.65s0,1.52,0,1.52h1.25v7.42c0,2.29,1.52,4.13,4.81,4.13,3.29,0,4.79-1.84,4.79-4.13v-7.42h1.23s0-1.52,0-1.52h-4.61s0,1.52,0,1.52Zm15.42,2.33c0,1.95-1.36,3.86-4.41,3.86h-1.98s0,3.62,0,3.62h1.61v1.52h-4.78v-1.52h1.25s0-9.81,0-9.81h-1.25v-1.52h5.14c3.05,0,4.41,1.93,4.41,3.86h0Zm-1.97,0c0-1.34-1.03-2.22-2.52-2.22h-1.91s0,4.44,0,4.44h1.91c1.49,0,2.52-.86,2.52-2.22h0Zm8.93,2.11l-2.13-.92c-1.25-.55-1.6-1.19-1.6-1.93,0-1.05.86-1.78,1.93-1.78,1.23,0,2.24.88,2.39,2.35h1.63s0-3.69,0-3.69h-1.67s0,.9,0,.9c-.74-.84-1.74-1.12-2.63-1.12-2.17,0-3.65,1.56-3.65,3.49,0,1.63.9,2.72,2.63,3.47l2,.86c1.1.48,1.76,1.05,1.76,1.98,0,1.14-.75,1.89-2.11,1.89-1.52,0-2.59-1.27-2.66-2.7h-1.67s0,4.08,0,4.08h1.67s0-1.08,0-1.08c.68.81,1.74,1.3,2.96,1.3,2.57,0,3.86-1.8,3.86-3.62,0-1.67-1.05-2.77-2.7-3.49Z"/>
    <path class="cls-5" d="m44.07,46.17h.85v1.51h-4.26v-.81s2.05-1.98,2.05-1.98c.87-.83,1.13-1.35,1.13-1.93s-.43-1.06-1.15-1.06-1.14.47-1.14,1.01c0,.22.04.4.16.68l-.85.18c-.18-.34-.23-.64-.23-.96,0-.92.78-1.76,2.1-1.76,1.42,0,2.11.93,2.11,1.85,0,.64-.18,1.33-1.46,2.55l-1.51,1.42h2.21s0-.68,0-.68Zm3.88-5.13c1.33,0,2.26,1.22,2.26,3.37s-.92,3.38-2.26,3.38-2.26-1.2-2.26-3.38.93-3.37,2.26-3.37Zm0,5.89c.8,0,1.26-.92,1.26-2.53s-.46-2.51-1.26-2.51-1.25.92-1.25,2.51.45,2.53,1.25,2.53Zm6.42-.76h.85v1.51h-4.26v-.81s2.05-1.98,2.05-1.98c.87-.83,1.13-1.35,1.13-1.93s-.43-1.06-1.15-1.06-1.14.47-1.14,1.01c0,.22.04.4.16.68l-.85.18c-.18-.34-.23-.64-.23-.96,0-.92.78-1.76,2.1-1.76,1.42,0,2.11.93,2.11,1.85,0,.64-.18,1.33-1.46,2.55l-1.51,1.42h2.21s0-.68,0-.68Zm3.71,1.62c-1.36,0-2.17-.81-2.17-1.93v-.29h1v.21c0,.61.32,1.21,1.16,1.21.78,0,1.17-.57,1.17-1.26,0-.86-.58-1.26-1.4-1.26-.12,0-.26,0-.39.02v-.76s1.73-1.73,1.73-1.73h-2.13s0,.67,0,.67h-.88v-1.52h3.96v.99s-1.63,1.65-1.63,1.65c1.06.07,1.75.86,1.75,1.92,0,1.17-.84,2.08-2.18,2.08Z"/>
    <path class="cls-3" d="m61.41,56.72l1.92,8.9-6.34-1.65-5.2,4.15-1.29-5.85-1.29,5.85-5.2-4.15-6.34,1.65,1.91-8.9.92.2-1.59,7.41,5.32-1.39,4.39,3.5,1.4-6.35-.19-.86.4-.09.03-.11.25.05.25-.05.03.11.4.09-.19.86,1.4,6.35,4.39-3.5,5.32,1.39-1.59-7.41.92-.2h0Zm-24.07-12.42c0-7.25,5.9-13.15,13.15-13.15,7.25,0,13.15,5.9,13.15,13.15s-5.9,13.15-13.15,13.15c-7.25,0-13.15-5.9-13.15-13.15Zm.94,0c0,6.73,5.48,12.21,12.21,12.21,6.73,0,12.21-5.48,12.21-12.21s-5.48-12.21-12.21-12.21c-6.73,0-12.21,5.48-12.21,12.21Z"/>
    <path class="cls-1" d="m7.46,27.96h23.24s0,7.59,0,7.59h-2.67v-4.97s-7.5,0-7.5,0v27.79s3.98,0,3.98,0v2.39h-10.87v-2.39h3.98s0-27.78,0-27.78h-7.5s0,4.97,0,4.97h-2.67v-7.59s0,0,0,0Zm85.99,9.28c0,4.31-2.67,9.28-10.59,9.28h-5.57s0,11.85,0,11.85h4.73v2.39h-11.43v-2.39h3.79s0-28.02,0-28.02h-3.79v-2.39h12.27c7.92,0,10.59,5.01,10.59,9.28h0Zm-2.95,0c0-3.84-3-6.7-7.26-6.7h-5.95s0,13.4,0,13.4h5.95c4.26,0,7.26-2.86,7.26-6.7Zm-23.41,7.07c0,9.21-7.49,16.71-16.71,16.71s-16.71-7.5-16.71-16.71,7.49-16.71,16.71-16.71c9.21,0,16.71,7.5,16.71,16.71Zm-2.5,0c0-7.83-6.37-14.2-14.2-14.2-7.83,0-14.21,6.37-14.21,14.2,0,7.83,6.37,14.2,14.21,14.2,7.83,0,14.2-6.37,14.2-14.2Z"/>
    <path class="cls-2" d="m69.64,10.96h-8.62c-.41,0-.75.33-.75.73v8.65c0,.4.33.73.75.73h8.62c.41,0,.75-.33.75-.73v-8.65c0-.4-.34-.73-.75-.73Zm-6.37,8.62h-1.5v-4.82h1.5v4.82Zm-.75-5.49c-.48,0-.87-.39-.87-.87s.39-.87.87-.87.87.39.87.87-.39.87-.87.87Zm6.37,5.49h-1.5v-2.35c0-.56,0-1.28-.78-1.28s-.9.61-.9,1.24v2.39h-1.5v-4.83h1.44v.66s.02,0,.02,0c.2-.38.69-.78,1.42-.78,1.52,0,1.8,1,1.8,2.3v2.65s0,0,0,0Zm-26.26-2.65v2.65h-1.5v-2.35c0-.56,0-1.28-.78-1.28s-.9.61-.9,1.24v2.39h-1.5v-4.82h1.44v.66s.02,0,.02,0c.2-.38.69-.78,1.42-.78,1.52,0,1.8,1,1.8,2.3h0Zm-10.58,1.21h2.89v1.44h-4.45v-7.12h1.56v5.68s0,0,0,0Zm3.58-3.39h1.5v4.82h-1.5v-4.82Zm1.62-1.53c0,.48-.39.87-.87.87s-.87-.39-.87-.87.39-.87.87-.87.87.39.87.87Zm9.21,3.76l1.93,2.59h-1.88s-1.59-2.39-1.59-2.39h-.02s0,2.39,0,2.39h-1.5v-7.12h1.5v4.26s1.7-1.96,1.7-1.96h1.84s-1.97,2.23-1.97,2.23h0Zm10.82-1.74h-.02c-.34-.47-.92-.64-1.54-.64-1.38,0-2.22,1.24-2.22,2.59,0,1.47.95,2.51,2.39,2.51.68,0,1.26-.41,1.49-.76h.02v.64s1.38,0,1.38,0v-7.12s-1.5,0-1.5,0v2.78s0,0,0,0Zm-1.08,3.14c-.75,0-1.2-.5-1.2-1.23s.45-1.23,1.2-1.23,1.2.5,1.2,1.23-.45,1.23-1.2,1.23Zm-5.4-3.77c-1.5,0-2.7,1-2.7,2.55s1.2,2.55,2.7,2.55c.78,0,1.57-.35,2.05-.96l-1.05-.77c-.25.34-.58.59-1.07.59-.58,0-1.01-.37-1.13-.94h3.48s0-.47,0-.47c0-1.55-.88-2.55-2.28-2.55h0Zm-1.2,2c.04-.47.4-.92,1.06-.92.54,0,.93.42.92.92h-1.98Z"/>
  </g>
</svg>